<?xml version="1.0" encoding="UTF-8" standalone="no"?><svg xmlns="http://www.w3.org/2000/svg" width="500" height="500" viewBox="0 0 132.292 132.292"><path d="M0 0h132.292v132.292H0z" style="fill:#000;fill-opacity:1;stroke:none;stroke-width:3.96875;stroke-linejoin:round;stroke-dasharray:none;stroke-dashoffset:0;stroke-opacity:1;paint-order:normal"/><path d="M112.918-57.8a50.274 50.274 0 0 1-25.137 43.539 50.274 50.274 0 0 1-50.274 0A50.274 50.274 0 0 1 12.37-57.8h50.274z" style="fill:#fafafa;fill-opacity:1;stroke:#fafafa;stroke-width:4.25297;stroke-linejoin:round;stroke-dasharray:none;stroke-opacity:1" transform="matrix(0 1.01117 -.92783 0 8.304 2.802)"/><path d="M-12.37 66.881a50.274 50.274 0 0 1-25.137 43.539 50.274 50.274 0 0 1-50.274 0 50.274 50.274 0 0 1-25.137-43.539h50.274z" style="fill:none;stroke:#fafafa;stroke-width:4.25297;stroke-linejoin:round;stroke-dasharray:none;stroke-opacity:1;paint-order:normal" transform="matrix(0 -1.01117 .92783 0 8.304 2.802)"/></svg>
